<?xml version="1.0" encoding="UTF-8"?>
<svg xmlns="http://www.w3.org/2000/svg" xmlns:xlink="http://www.w3.org/1999/xlink" width="19px" height="19px" viewBox="0 0 19 19" version="1.1">
<g id="surface1">
<path style=" stroke:none;fill-rule:nonzero;fill:rgb(7.058824%,7.058824%,7.058824%);fill-opacity:1;" d="M 6.964844 6.964844 L 8.390625 6.964844 C 8.472656 6.964844 8.550781 6.886719 8.550781 6.808594 L 8.550781 5.621094 C 8.550781 5.542969 8.472656 5.460938 8.390625 5.460938 L 6.964844 5.460938 C 6.886719 5.460938 6.808594 5.542969 6.808594 5.621094 L 6.808594 6.886719 C 6.808594 6.886719 6.886719 6.964844 6.964844 6.964844 Z M 8.867188 8.789062 L 10.292969 8.789062 C 10.371094 8.789062 10.449219 8.707031 10.449219 8.628906 L 10.449219 7.363281 C 10.449219 7.285156 10.371094 7.203125 10.292969 7.203125 L 8.867188 7.203125 C 8.789062 7.203125 8.707031 7.285156 8.707031 7.363281 L 8.707031 8.628906 C 8.707031 8.707031 8.789062 8.789062 8.867188 8.789062 Z M 8.867188 6.964844 L 10.292969 6.964844 C 10.371094 6.964844 10.449219 6.886719 10.449219 6.808594 L 10.449219 5.621094 L 10.292969 5.460938 L 8.867188 5.460938 C 8.789062 5.460938 8.707031 5.542969 8.707031 5.621094 L 8.707031 6.886719 C 8.707031 6.886719 8.789062 6.964844 8.867188 6.964844 Z M 10.847656 8.789062 L 12.269531 8.789062 C 12.351562 8.789062 12.429688 8.707031 12.429688 8.628906 L 12.429688 7.363281 C 12.429688 7.285156 12.351562 7.203125 12.269531 7.203125 L 10.847656 7.203125 C 10.765625 7.203125 10.6875 7.285156 10.6875 7.363281 L 10.6875 8.628906 C 10.6875 8.707031 10.765625 8.789062 10.847656 8.789062 Z M 8.867188 5.144531 L 10.292969 5.144531 C 10.371094 5.144531 10.449219 5.066406 10.449219 4.988281 L 10.449219 3.800781 C 10.449219 3.722656 10.371094 3.640625 10.292969 3.640625 L 8.867188 3.640625 C 8.789062 3.640625 8.707031 3.722656 8.707031 3.800781 L 8.707031 5.066406 C 8.707031 5.144531 8.789062 5.144531 8.867188 5.144531 Z M 3.007812 8.789062 L 4.433594 8.789062 C 4.511719 8.789062 4.589844 8.707031 4.589844 8.628906 L 4.589844 7.363281 C 4.589844 7.285156 4.511719 7.203125 4.433594 7.203125 L 3.007812 7.203125 C 2.929688 7.203125 2.851562 7.285156 2.851562 7.363281 L 2.851562 8.628906 Z M 17.257812 7.996094 C 16.863281 7.757812 16.386719 7.601562 15.992188 7.679688 C 15.753906 7.679688 15.515625 7.679688 15.359375 7.757812 C 15.199219 7.046875 14.804688 6.414062 14.25 6.097656 L 14.011719 5.9375 L 13.855469 6.175781 C 13.617188 6.332031 13.457031 6.648438 13.378906 7.046875 C 13.222656 7.679688 13.300781 8.3125 13.617188 8.789062 C 13.222656 8.945312 12.824219 9.023438 12.429688 9.105469 L 2.058594 9.105469 C 1.820312 9.105469 1.582031 9.339844 1.582031 9.578125 C 1.582031 10.527344 1.742188 11.398438 2.058594 12.269531 C 2.375 13.140625 2.929688 13.855469 3.640625 14.328125 C 4.75 14.882812 5.9375 15.121094 7.125 15.042969 C 7.757812 15.042969 8.390625 14.960938 9.023438 14.882812 C 9.894531 14.726562 10.765625 14.410156 11.558594 13.933594 C 12.191406 13.539062 12.746094 13.0625 13.300781 12.507812 C 14.011719 11.636719 14.566406 10.6875 14.960938 9.578125 L 15.121094 9.578125 C 15.753906 9.578125 16.386719 9.339844 16.863281 8.945312 C 17.101562 8.789062 17.257812 8.550781 17.335938 8.234375 L 17.417969 8.074219 Z M 4.988281 8.789062 L 6.332031 8.789062 C 6.414062 8.789062 6.492188 8.707031 6.492188 8.628906 L 6.492188 7.363281 C 6.492188 7.285156 6.414062 7.203125 6.332031 7.203125 L 4.988281 7.203125 C 4.910156 7.203125 4.828125 7.285156 4.828125 7.363281 L 4.828125 8.628906 C 4.828125 8.707031 4.910156 8.789062 4.988281 8.789062 Z M 4.988281 6.964844 L 6.332031 6.964844 C 6.414062 6.964844 6.492188 6.886719 6.492188 6.808594 L 6.492188 5.621094 C 6.492188 5.542969 6.414062 5.460938 6.332031 5.460938 L 4.988281 5.460938 C 4.910156 5.460938 4.828125 5.542969 4.828125 5.621094 L 4.828125 6.886719 C 4.828125 6.886719 4.910156 6.964844 4.988281 6.964844 Z M 6.964844 8.789062 L 8.390625 8.789062 C 8.472656 8.789062 8.550781 8.707031 8.550781 8.628906 L 8.550781 7.363281 C 8.550781 7.285156 8.472656 7.203125 8.390625 7.203125 L 6.964844 7.203125 C 6.886719 7.203125 6.808594 7.285156 6.808594 7.363281 L 6.808594 8.628906 C 6.808594 8.707031 6.886719 8.789062 6.964844 8.789062 Z M 6.964844 8.789062 "/>
</g>
</svg>
