<?xml version="1.0" encoding="UTF-8"?>
<svg xmlns="http://www.w3.org/2000/svg" xmlns:xlink="http://www.w3.org/1999/xlink" width="19px" height="19px" viewBox="0 0 19 19" version="1.1">
<g id="surface1">
<path style=" stroke:none;fill-rule:nonzero;fill:rgb(0%,0%,0%);fill-opacity:1;" d="M 15.996094 12.976562 C 14.039062 15.582031 9.867188 14.703125 7.191406 14.828125 C 7.191406 14.828125 6.714844 14.855469 6.238281 14.933594 C 6.238281 14.933594 6.421875 14.855469 6.652344 14.777344 C 8.53125 14.125 9.417969 13.996094 10.5625 13.410156 C 12.707031 12.308594 14.84375 9.914062 15.277344 7.429688 C 14.460938 9.820312 11.976562 11.878906 9.714844 12.714844 C 8.167969 13.289062 5.367188 13.84375 5.363281 13.84375 C 5.328125 13.824219 5.289062 13.804688 5.25 13.78125 C 3.347656 12.855469 3.292969 8.730469 6.75 7.402344 C 8.269531 6.820312 9.71875 7.140625 11.355469 6.75 C 13.105469 6.335938 15.128906 5.023438 15.953125 3.3125 C 16.875 6.046875 17.984375 10.328125 15.996094 12.976562 Z M 16.027344 2.464844 C 15.808594 2.992188 15.523438 3.496094 15.1875 3.960938 C 13.695312 2.425781 11.648438 1.558594 9.511719 1.558594 C 5.140625 1.558594 1.582031 5.117188 1.582031 9.488281 C 1.582031 11.691406 2.503906 13.796875 4.121094 15.292969 L 4.292969 15.449219 L 4.414062 15.554688 C 5.839844 16.757812 7.644531 17.417969 9.511719 17.417969 C 13.691406 17.417969 17.121094 14.164062 17.414062 10.058594 C 17.632812 8.050781 17.039062 5.5 16.027344 2.464844 "/>
</g>
</svg>
